<svg xmlns:dc="http://purl.org/dc/elements/1.1/" xmlns:cc="http://creativecommons.org/ns#" xmlns:rdf="http://www.w3.org/1999/02/22-rdf-syntax-ns#" xmlns:svg="http://www.w3.org/2000/svg" xmlns="http://www.w3.org/2000/svg" xmlns:sodipodi="http://sodipodi.sourceforge.net/DTD/sodipodi-0.dtd" xmlns:inkscape="http://www.inkscape.org/namespaces/inkscape" id="svg2" inkscape:version="0.91 r13725" xml:space="preserve" width="1417.8" height="1417.65" viewBox="0 0 1417.8 1417.65" sodipodi:docname="logo.svg"><metadata></metadata><defs id="defs6"><clipPath clipPathUnits="userSpaceOnUse" id="clipPath16"><path d="m 0,1134.12 1134.24,0 L 1134.24,0 0,0 0,1134.12 Z" id="path18" inkscape:connector-curvature="0"></path></clipPath></defs><g id="g10" inkscape:groupmode="layer" inkscape:label="Logo Circular Azul" transform="matrix(1.25,0,0,-1.25,0,1417.65)"><g id="g12"><g id="g14" clip-path="url(#clipPath16)"><g id="g3443" transform="matrix(1.4158232,0,0,1.4955916,-236.02205,-270.43295)"><g transform="translate(879.7148,441.7842)" id="g24" style="fill:#003366;fill-opacity:1"><path inkscape:connector-curvature="0" id="path26" style="fill:#003366;fill-opacity:1;fill-rule:evenodd;stroke:none" d="m 0,0 69.262,69.089 0,138.849 L 0,138.849 0,0 Z"></path></g><path inkscape:connector-curvature="0" id="path28" style="fill:#73c14a;fill-opacity:1;fill-rule:evenodd;stroke:none" d="m 740.852,441.783 138.796,0 0,-138.523 -138.796,0 0,138.523 z"></path><path inkscape:connector-curvature="0" id="path30" style="fill:#73c14a;fill-opacity:1;fill-rule:evenodd;stroke:none" d="m 810.181,788.094 138.796,0 0,-138.524 -138.796,0 0,138.524 z"></path><g transform="translate(318.6602,695.2549)" id="g32"><path inkscape:connector-curvature="0" id="path34" style="fill:#003366;fill-opacity:1;fill-rule:evenodd;stroke:none" d="m 0,0 3.911,0 c 29.835,-0.486 58.912,-9.041 86.191,-20.651 -0.014,-12.84 0.014,-25.664 0,-38.49 -16.344,9.212 -33.745,16.782 -52.06,21.052 -19.685,4.541 -40.44,5.67 -60.239,1.156 -19.357,-4.37 -37.129,-15.038 -50.261,-29.877 -11.706,-12.881 -19.357,-29.334 -21.798,-46.558 -2.156,-15.438 -1.342,-31.434 3.34,-46.358 4.654,-15.024 13.732,-28.535 25.466,-38.946 11.677,-10.597 26.152,-17.98 41.497,-21.551 10.863,-2.542 22.098,-3.499 33.246,-2.913 24.039,0.742 47.663,7.869 68.79,19.223 5.082,2.485 9.764,5.684 14.66,8.512 0.014,-13.111 -0.014,-26.221 0.014,-39.346 -15.231,-8.212 -31.704,-14.153 -48.705,-17.452 -14.403,-2.956 -29.135,-4.071 -43.823,-4.056 -14.361,0.157 -28.807,1.714 -42.639,5.669 -20.542,5.613 -39.298,17.109 -54.116,32.334 -21.426,22.223 -34.673,52.342 -35.758,83.276 -1.113,23.994 3.969,48.558 16.23,69.352 6.653,11.539 15.346,21.822 25.181,30.791 15.845,14.553 35.287,25.221 56.2,30.363 C -23.354,-1.542 -11.663,-0.286 0,0"></path></g><g transform="translate(455.8726,691.959)" id="g36" style="fill:#003366;fill-opacity:1"><path inkscape:connector-curvature="0" id="path38" style="fill:#003366;fill-opacity:1;fill-rule:evenodd;stroke:none" d="m 0,0 c 11.918,0.014 23.837,0.014 35.756,0 l 0,-247.114 c -0.157,-13.854 -0.671,-27.849 -3.983,-41.36 -1.584,-6.627 -4.239,-12.996 -8.007,-18.666 -5.581,-8.597 -13.646,-15.453 -22.738,-20.123 -9.478,-4.812 -20.169,-6.912 -30.746,-7.212 -4.681,-0.157 -9.306,0.514 -13.959,1 -2.299,11.097 -4.425,22.222 -6.666,33.333 10.063,0.086 20.454,-0.457 30.146,2.799 7.608,2.585 13.388,9.07 16.286,16.424 1.227,3.428 1.898,7.026 2.384,10.626 1.442,10.368 1.356,20.837 1.541,31.262 C 0,-159.354 0,-79.677 0,0"></path></g><g transform="translate(583.9941,661.6157)" id="g40" style="fill:#003366;fill-opacity:1"><path inkscape:connector-curvature="0" id="path42" style="fill:#003366;fill-opacity:1;fill-rule:evenodd;stroke:none" d="m 0,0 c -0.015,-26.317 0,-52.634 0,-78.965 14.359,0.1 28.891,-0.614 43.064,2.214 8.451,1.584 16.258,6.454 21.383,13.351 5.596,7.354 8.065,16.778 7.722,25.945 -0.356,11.738 -6.151,23.647 -16.315,29.901 -6.766,4.298 -14.845,5.683 -22.681,6.526 C 22.153,0.071 11.062,-0.015 0,0 m -35.886,-219.759 c 0,83.377 -0.014,166.739 0,250.117 21.126,-0.015 42.252,-0.015 63.364,0 16.786,-0.1 34.001,-2.984 48.759,-11.338 9.378,-5.341 17.686,-12.766 23.41,-21.947 6.295,-9.982 9.264,-21.805 9.535,-33.543 0.357,-8.082 -0.542,-16.235 -2.883,-23.989 -2.541,-8.425 -6.951,-16.278 -12.861,-22.804 -6.167,-6.911 -14.032,-12.166 -22.439,-15.936 -1.27,-0.571 -2.627,-0.97 -3.797,-1.727 13.975,-9.496 25.109,-22.547 34.558,-36.427 12.704,-18.12 23.552,-37.426 35.856,-55.818 6.067,-9.081 12.832,-17.663 19.241,-26.517 l 0,-0.071 c -14.202,0.043 -28.42,-0.072 -42.622,0.057 -5.153,7.811 -10.177,15.707 -15.672,23.261 -2.542,3.527 -5.068,7.068 -7.209,10.853 -5.125,8.467 -10.278,16.921 -15.488,25.345 -2.155,3.399 -4.039,6.997 -6.565,10.153 -5.639,7.711 -11.662,15.178 -18.414,21.962 -5.553,5.397 -11.434,10.723 -18.499,14.064 -10.321,3.928 -21.583,2.984 -32.388,3.113 0,-36.269 -0.015,-72.539 0,-108.794 -11.962,-0.014 -23.924,-0.014 -35.886,-0.014"></path></g></g></g></g></g></svg>